<mxfile host="app.diagrams.net" modified="2021-08-16T13:10:46.309Z" agent="5.0 (Windows NT 10.0; Win64; x64) AppleWebKit/537.36 (KHTML, like Gecko) Chrome/92.0.4515.131 Safari/537.36 Edg/92.0.902.67" etag="9zNYwu_BsboMP-VNr4DM" version="14.9.6" type="github">
  <diagram id="CzVLs8KpcH3aO--FF7Sr" name="Page-1">
    <mxGraphModel dx="1422" dy="794" grid="0" gridSize="10" guides="1" tooltips="1" connect="1" arrows="1" fold="1" page="0" pageScale="1" pageWidth="827" pageHeight="1169" math="0" shadow="0">
      <root>
        <mxCell id="0" />
        <mxCell id="1" parent="0" />
        <mxCell id="g-jdyBd9-LUTFuWgvD8Y-1" value="京东商家开放平台" style="rounded=0;whiteSpace=wrap;html=1;fillColor=#dae8fc;strokeColor=#6c8ebf;" vertex="1" parent="1">
          <mxGeometry x="140" y="300" width="330" height="60" as="geometry" />
        </mxCell>
        <mxCell id="g-jdyBd9-LUTFuWgvD8Y-3" value="医理" style="rounded=0;whiteSpace=wrap;html=1;dashed=1;fillColor=#f8cecc;strokeColor=#b85450;fontStyle=1" vertex="1" parent="1">
          <mxGeometry x="140" y="400" width="330" height="160" as="geometry" />
        </mxCell>
        <mxCell id="g-jdyBd9-LUTFuWgvD8Y-2" value="统一对接服务" style="rounded=0;whiteSpace=wrap;html=1;fillColor=#d5e8d4;strokeColor=#82b366;" vertex="1" parent="1">
          <mxGeometry x="160" y="420" width="290" height="30" as="geometry" />
        </mxCell>
        <mxCell id="g-jdyBd9-LUTFuWgvD8Y-8" value="" style="edgeStyle=orthogonalEdgeStyle;rounded=0;orthogonalLoop=1;jettySize=auto;html=1;" edge="1" parent="1" source="g-jdyBd9-LUTFuWgvD8Y-6" target="g-jdyBd9-LUTFuWgvD8Y-7">
          <mxGeometry relative="1" as="geometry" />
        </mxCell>
        <mxCell id="g-jdyBd9-LUTFuWgvD8Y-6" value="ERP系统" style="rounded=1;whiteSpace=wrap;html=1;fillColor=#fff2cc;strokeColor=#d6b656;" vertex="1" parent="1">
          <mxGeometry x="165" y="510" width="120" height="40" as="geometry" />
        </mxCell>
        <mxCell id="g-jdyBd9-LUTFuWgvD8Y-7" value="WMS系统" style="rounded=1;whiteSpace=wrap;html=1;fillColor=#fff2cc;strokeColor=#d6b656;" vertex="1" parent="1">
          <mxGeometry x="330" y="510" width="120" height="40" as="geometry" />
        </mxCell>
        <mxCell id="g-jdyBd9-LUTFuWgvD8Y-9" value="" style="shape=singleArrow;direction=south;whiteSpace=wrap;html=1;" vertex="1" parent="1">
          <mxGeometry x="210" y="460" width="30" height="40" as="geometry" />
        </mxCell>
        <mxCell id="g-jdyBd9-LUTFuWgvD8Y-11" value="" style="shape=doubleArrow;direction=south;whiteSpace=wrap;html=1;" vertex="1" parent="1">
          <mxGeometry x="370" y="460" width="20" height="40" as="geometry" />
        </mxCell>
        <mxCell id="g-jdyBd9-LUTFuWgvD8Y-12" value="" style="shape=doubleArrow;direction=south;whiteSpace=wrap;html=1;" vertex="1" parent="1">
          <mxGeometry x="295" y="360" width="20" height="40" as="geometry" />
        </mxCell>
      </root>
    </mxGraphModel>
  </diagram>
</mxfile>
